<svg xmlns="http://www.w3.org/2000/svg" viewBox="503 3056 367 392" fill="currentColor"><path d="M801.2 3091.0L724.5 3169.2L769.4 3213.3L846.1 3135.1L868.6 3157.2L775.9 3251.7L869.3 3345.0L847.1 3367.3L769.5 3289.9L725.1 3334.4L802.6 3411.8L780.3 3434.1L687.6 3341.6L595.5 3435.5L573.0 3413.4L649.7 3335.2L604.8 3291.1L528.1 3369.3L505.6 3347.2L598.0 3253.0L504.0 3162.4L525.9 3139.7L604.7 3215.7L648.4 3170.4L569.6 3094.4L591.4 3071.7L686.3 3163.1L778.7 3068.9L801.2 3091.0M655.6 3205.6C656.8 3206.9 658.5 3208.6 660.7 3210.8L660.8 3210.8L673.9 3223.9L659.5 3238.9L646.1 3226.0C643.9 3223.8 642.1 3222.2 640.7 3221.1L609.1 3253.9L640.1 3284.3C641.4 3283.1 643.1 3281.4 645.3 3279.2L645.3 3279.2L658.5 3266.1L673.4 3280.7L660.3 3294.0C658.2 3296.2 656.5 3297.9 655.4 3299.3L687.1 3330.4L719.1 3298.5C717.9 3297.2 716.2 3295.5 714.0 3293.3L700.9 3280.1L715.6 3265.4L728.9 3278.3L728.9 3278.3C731.1 3280.5 732.9 3282.2 734.2 3283.4L766.0 3251.5L733.6 3219.6C732.2 3220.8 730.5 3222.5 728.4 3224.7L715.3 3237.9L700.4 3223.3L713.3 3209.9L713.3 3209.9C715.5 3207.7 717.1 3205.9 718.3 3204.6L686.6 3173.5L655.6 3205.6"/><path d="M622.0 3345.2L595.0 3345.5L594.7 3318.4L621.8 3318.2L622.0 3345.2"/><path d="M779.9 3344.1L752.9 3344.2L752.8 3317.1L779.9 3317.1L779.9 3344.1"/><path d="M621.5 3187.6L594.5 3188.1L594.0 3161.1L621.0 3160.6L621.5 3187.6"/><path d="M778.9 3185.4L751.8 3185.7L751.6 3158.6L778.6 3158.4L778.9 3185.4"/></svg>